<!DOCTYPE svg PUBLIC "-//W3C//DTD SVG 1.1//EN" "http://www.w3.org/Graphics/SVG/1.1/DTD/svg11.dtd">
<!-- Uploaded to: SVG Repo, www.svgrepo.com, Transformed by: SVG Repo Mixer Tools -->
<svg width="800px" height="800px" viewBox="-2.4 -2.4 28.80 28.80" fill="none" xmlns="http://www.w3.org/2000/svg" stroke="#00364d" stroke-width="0.00024000000000000003" transform="matrix(1, 0, 0, 1, 0, 0)rotate(0)">
<g id="SVGRepo_bgCarrier" stroke-width="0" transform="translate(0.6000000000000014,0.6000000000000014), scale(0.95)">
<path transform="translate(-2.4, -2.4), scale(0.8999999999999999)" d="M16,30.586388227382773C18.96121627961452,30.005028281111088,19.80179317478858,26.185995513902,21.69061423457487,23.83245854884476C22.975778449456737,22.23109908166714,24.14562001932566,20.725023643582162,25.285047600493517,19.01689484586043C26.96564440264868,16.497493136997115,31.100269057972625,14.267661554867997,29.93581962618259,11.471977720304182C28.72992317321281,8.576785256220141,23.761406027660524,10.640412543041492,21.102987441144585,8.976340345617139C18.771060044092245,7.51663961694723,18.62595856911811,3.569004759137307,16,2.748667514049693C13.270711338110319,1.8960504285122934,9.831221148523538,2.7428764180895766,7.900453036481769,4.851929995406312C6.007124259040066,6.920087122197392,7.362066554138148,10.250005264411088,6.650026547336841,12.962009465974948C6.002507914053057,15.42826590842585,3.6138552682939844,17.38863116745593,3.945136645443826,19.916862539291582C4.296159429168202,22.5957538843962,6.392739109856873,24.647947958723144,8.415904293782067,26.438612213161417C10.62769637698798,28.396226476749316,13.101639383726969,31.15540805337529,16,30.586388227382773" fill="#e9a50e" strokewidth="0"/>
</g>
<g id="SVGRepo_tracerCarrier" stroke-linecap="round" stroke-linejoin="round" stroke="#CCCCCC" stroke-width="0.336"/>
<g id="SVGRepo_iconCarrier"> <path opacity="0.6" d="M15 2H14C11.1716 2 9.75736 2 8.87868 2.87868C8 3.75736 8 5.17157 8 8V16C8 18.8284 8 20.2426 8.87868 21.1213C9.75736 22 11.1716 22 14 22H15C17.8284 22 19.2426 22 20.1213 21.1213C21 20.2426 21 18.8284 21 16V8C21 5.17157 21 3.75736 20.1213 2.87868C19.2426 2 17.8284 2 15 2Z" fill="#1C274C"/> <path opacity="0.4" d="M8 8C8 6.46249 8 5.34287 8.14114 4.5H8C5.64298 4.5 4.46447 4.5 3.73223 5.23223C3 5.96447 3 7.14298 3 9.5V14.5C3 16.857 3 18.0355 3.73223 18.7678C4.46447 19.5 5.64298 19.5 8 19.5H8.14114C8 18.6571 8 17.5375 8 16V12.75V11.25V8Z" fill="#1C274C"/> <path fill-rule="evenodd" clip-rule="evenodd" d="M14.5303 11.4697C14.8232 11.7626 14.8232 12.2374 14.5303 12.5303L12.5303 14.5303C12.2374 14.8232 11.7626 14.8232 11.4697 14.5303C11.1768 14.2374 11.1768 13.7626 11.4697 13.4697L12.1893 12.75L5 12.75C4.58579 12.75 4.25 12.4142 4.25 12C4.25 11.5858 4.58579 11.25 5 11.25L12.1893 11.25L11.4697 10.5303C11.1768 10.2374 11.1768 9.76256 11.4697 9.46967C11.7626 9.17678 12.2374 9.17678 12.5303 9.46967L14.5303 11.4697Z" fill="#1C274C"/> </g>
</svg>