<!DOCTYPE svg PUBLIC "-//W3C//DTD SVG 1.1//EN" "http://www.w3.org/Graphics/SVG/1.1/DTD/svg11.dtd">
<!-- Uploaded to: SVG Repo, www.svgrepo.com, Transformed by: SVG Repo Mixer Tools -->
<svg width="202px" height="202px" viewBox="-2.4 -2.4 28.80 28.80" xmlns="http://www.w3.org/2000/svg" fill="#00364d" stroke="#00364d" transform="matrix(1, 0, 0, 1, 0, 0)" stroke-width="0.00024000000000000003">
<g id="SVGRepo_bgCarrier" stroke-width="0" transform="translate(0,0), scale(1)">
<path transform="translate(-2.4, -2.4), scale(0.8999999999999999)" d="M16,31.387023217976093C18.478000581032365,31.56928197054796,21.392536850291464,31.345496808686644,23.11313198661015,29.5529406702736C24.900138226024307,27.691195895905626,23.412230279630645,24.25194319692237,24.883585697941477,22.131896466871602C26.360909074003292,20.003250625309374,30.112579812479492,20.185098177841372,31.23528088551281,17.849898020067165C32.31653224817027,15.600912592584338,32.00927830278832,12.476344148553588,30.46999517693802,10.512254685023155C28.869182957702378,8.46965552955286,25.458697171069222,9.205628989088908,23.314695617724446,7.7434154580212695C21.53606913497849,6.530388487155003,21.312455388248434,3.437639001318343,19.240301469840006,2.8535801553115014C17.183425502101787,2.273827563853862,15.37592610154017,4.566638020661907,13.266889112271318,4.911333236550748C10.919801621033056,5.294934772995512,7.98853646106495,3.371064990222818,6.23618972067119,4.978936481269683C4.471247510231633,6.598364987110561,5.571999858628542,9.629068013540818,5.515416773423887,12.023722069180174C5.473749281597536,13.787132953005216,5.548158664090728,15.502427628883048,5.946930950314657,17.220663581483112C6.31561230992066,18.809243302323537,7.280889281432782,20.129406443467637,7.758488858319305,21.688704400416274C8.457275317079672,23.970147580478603,7.870520472888143,26.72725501579515,9.41562468525354,28.545479004122903C10.986394762896994,30.393905674934,13.580838920091015,31.209092153685976,16,31.387023217976093" fill="#e9a50e" strokewidth="0"/>
</g>
<g id="SVGRepo_tracerCarrier" stroke-linecap="round" stroke-linejoin="round" stroke="#CCCCCC" stroke-width="0.43200000000000005"/>
<g id="SVGRepo_iconCarrier">
<path d="M18 9H4V8h14zm-5 3H4v1h9zm8-8v9h-1V5H2v13h9v1H1V4zm2.07 11.637l-.707-.707-5.863 5.863-2.863-2.863-.707.707 3.57 3.57z"/>
<path fill="none" d="M0 0h24v24H0z"/>
</g>
</svg>